
<svg width="24" height="24" version="1.1" viewBox="0 0 1000 1000" xmlns="http://www.w3.org/2000/svg">
 <path fill="#eee" d="m755.95 119.3c-0.64176 0.01053-1.2862 0.03934-1.9336 0.08789-6.7918 0.5391-13.179 3.0583-19.73 4.834-31.473 8.689-64.774 0.76998-97.314-2.1133-114.08-10.198-229.09 41.656-341.48 19.613-10.164-2.0105-20.645-4.5744-30.832-2.6621-8.1489 1.5207-16.107 6.9743-19.051 14.377-10.804 5.3944-17.882 19.285-17.01 32.041 1.1454 16.754 9.5885 32.891 21.494 44.701 8.6095 8.5405 8.112 30.984 7.5234 43.041-7.97 174.92-15.989 349.88-23.959 524.85-0.53797 12.448-1.0746 25.19 2.7461 37.033s12.979 22.783 25.238 25.037c19.174 3.549 35.322-14.108 54.168-19.035 17.475-4.5783 38.569 1.5123 52.34-10.156 10.5-8.8624 11.905-24.99 7.834-38.105-4.0708-13.116-12.543-24.304-19.402-36.232-22.896-39.697-27.985-86.914-30.57-132.67-2.1242-37.54-2.8868-75.159-2.3027-112.76 3.51-4.179 7.1976-8.1359 11.984-10.525 13.049-6.4754 28.341 0.87808 41.789 6.5 13.448 5.6219 31.812 8.2259 40.15-3.7266l0.46289-1.7363c52.752-0.56791 105.57 8.9164 154.79 27.883 20.465 7.8556 45.3 16.888 62.592 3.3535 12.222-9.5773 15.068-26.973 14.367-42.49-0.65195-15.519-3.8707-31.363 0.01172-46.4 2.6685-10.421 7.0737-24.746-2.6504-29.359-4.5628-2.1974-9.8804-0.48623-14.66 1.2012-86.089 30.278-179.12 40.415-269.72 29.498-12.093-1.447-24.679-3.1954-36.607-1.6973 3.3741-57.567 9.9081-114.95 19.602-171.79 0.00878-0.05149 0.01856-0.10281 0.02734-0.1543 3.9875-1.9852 7.9121-4.1104 11.803-6.252 35.091-32.249 81.749-49.883 128.93-56.906 47.189-6.9281 95.222-3.9128 142.7 0.64844 31.406 3.0302 65.9 8.3048 86.389 32.344 8.7275 10.237 15.002 23.898 27.543 28.758 13.169 5.0837 28.544-2.2425 37.123-13.445 8.5788-11.203 11.897-25.48 14.85-39.281 4.3636-20.312 8.4728-41.566 3.0137-61.568-5.2885-19.378-22.342-37.057-42.236-36.73zm-398.3 146.18c-0.01223 0.01124-0.02489 0.02196-0.03711 0.0332l2.4629-1.3652c-0.80478 0.44509-1.6178 0.88727-2.4258 1.332z" stroke-width=".49001"/>
</svg>
